<svg width="48" height="48" viewBox="0 0 48 48" fill="none" xmlns="http://www.w3.org/2000/svg">
<rect width="48" height="48" rx="15" fill="#D8D8D8" fill-opacity="0.54"/>
<path d="M20.625 16C19.9288 16 19.2611 16.2766 18.7688 16.7688C18.2766 17.2611 18 17.9288 18 18.625V29.125C18 29.8212 18.2766 30.4889 18.7688 30.9812C19.2611 31.4734 19.9288 31.75 20.625 31.75H25C25.2321 31.75 25.4546 31.6578 25.6187 31.4937C25.7828 31.3296 25.875 31.1071 25.875 30.875C25.875 30.6429 25.7828 30.4204 25.6187 30.2563C25.4546 30.0922 25.2321 30 25 30H20.625C20.3929 30 20.1704 29.9078 20.0063 29.7437C19.8422 29.5796 19.75 29.3571 19.75 29.125V18.625C19.75 18.3929 19.8422 18.1704 20.0063 18.0063C20.1704 17.8422 20.3929 17.75 20.625 17.75H25C25.2321 17.75 25.4546 17.6578 25.6187 17.4937C25.7828 17.3296 25.875 17.1071 25.875 16.875C25.875 16.6429 25.7828 16.4204 25.6187 16.2563C25.4546 16.0922 25.2321 16 25 16H20.625Z" fill="#494949"/>
<path d="M28.7564 19.7564C28.9205 19.5923 29.143 19.5002 29.375 19.5002C29.607 19.5002 29.8295 19.5923 29.9936 19.7564L33.4936 23.2564C33.6577 23.4205 33.7498 23.643 33.7498 23.875C33.7498 24.107 33.6577 24.3295 33.4936 24.4936L29.9936 27.9936C29.8286 28.153 29.6076 28.2412 29.3781 28.2392C29.1487 28.2372 28.9293 28.1452 28.767 27.983C28.6048 27.8207 28.5128 27.6013 28.5108 27.3718C28.5088 27.1424 28.597 26.9214 28.7564 26.7564L30.7628 24.75H24.125C23.8929 24.75 23.6704 24.6578 23.5063 24.4937C23.3422 24.3296 23.25 24.1071 23.25 23.875C23.25 23.6429 23.3422 23.4204 23.5063 23.2563C23.6704 23.0922 23.8929 23 24.125 23H30.7628L28.7564 20.9936C28.5923 20.8295 28.5002 20.607 28.5002 20.375C28.5002 20.143 28.5923 19.9205 28.7564 19.7564Z" fill="#494949"/>
</svg>
