<svg width="22" height="20" viewBox="0 0 22 20" fill="none" xmlns="http://www.w3.org/2000/svg">
<path fill-rule="evenodd" clip-rule="evenodd" d="M10.7923 0.0887968C10.916 -0.0283668 11.1092 -0.0297521 11.2346 0.085627L14.7732 3.34345V1.79266C14.7732 1.61373 14.9183 1.46868 15.0972 1.46868H17.905C18.0839 1.46868 18.229 1.61373 18.229 1.79266V6.7517L21.8442 10.2198C21.9396 10.3113 21.9698 10.4517 21.9205 10.5744C21.8711 10.6971 21.7521 10.7775 21.6199 10.7775H18.229V19.676C18.229 19.855 18.0839 20 17.905 20H4.03889C3.85996 20 3.71491 19.855 3.71491 19.676V10.7775H0.323986C0.191359 10.7775 0.0721258 10.6967 0.0230283 10.5735C-0.0260693 10.4503 0.00488523 10.3096 0.101161 10.2184L10.7923 0.0887968ZM11.0183 0.767262L1.13696 10.1296H4.03889C4.21781 10.1296 4.36286 10.2746 4.36286 10.4536V19.3521H17.581V10.4536C17.581 10.2746 17.7261 10.1296 17.905 10.1296H20.8142L17.6807 7.12364C17.617 7.06254 17.581 6.97811 17.581 6.88985V2.11663H15.4212V4.08207C15.4212 4.21068 15.3451 4.32711 15.2273 4.37876C15.1096 4.43042 14.9724 4.40753 14.8778 4.32042L11.0183 0.767262ZM10.9503 7.90497C8.50501 7.90497 6.52269 9.88729 6.52269 12.3326C6.52269 14.7779 8.50501 16.7603 10.9503 16.7603C13.3957 16.7603 15.378 14.7779 15.378 12.3326C15.378 9.88729 13.3957 7.90497 10.9503 7.90497ZM5.87474 12.3326C5.87474 9.52944 8.14716 7.25702 10.9503 7.25702C13.7535 7.25702 16.0259 9.52944 16.0259 12.3326C16.0259 15.1358 13.7535 17.4082 10.9503 17.4082C8.14716 17.4082 5.87474 15.1358 5.87474 12.3326Z" fill="#999999"/>
</svg>
