<svg width="180" height="29" viewBox="0 0 180 29" fill="none" xmlns="http://www.w3.org/2000/svg">
<path d="M94.9057 0.541199C95.8628 0.178636 96.849 -0.11504 97.8714 0.0444877C99.9852 0.37442 101.203 2.65857 100.409 4.79407C99.8401 6.33859 99.202 7.85772 98.5965 9.38774L94.4017 19.942C94.3546 20.0616 94.3255 20.1885 94.2857 20.3045L94.2422 20.3662H94.3437C96.2918 19.7063 98.2364 19.0464 100.177 18.3866C101.519 17.9297 102.853 17.4548 104.202 17.0161C104.564 16.8964 104.698 16.7442 104.662 16.349C104.3 12.252 107.088 6.95494 111.188 4.83032C119.31 0.617337 127.946 5.77299 129.284 13.5318L129.382 14.1301C129.52 14.9531 129.208 15.4571 128.403 15.6891L121.489 17.7122L113.538 20.0435L113.135 20.1704C114.034 21.0575 115.219 21.5971 116.478 21.6931C117.477 21.8085 118.489 21.6673 119.419 21.2829C120.348 20.8984 121.164 20.2835 121.79 19.496C122.352 18.818 122.798 18.7709 123.57 19.1842C124.632 19.7752 125.698 20.3625 126.757 20.9571C126.932 21.0318 127.087 21.147 127.209 21.2933C127.331 21.4395 127.417 21.6127 127.459 21.7986C127.501 21.9844 127.499 22.1776 127.452 22.3622C127.405 22.5468 127.314 22.7176 127.188 22.8606C126.163 24.3195 124.83 25.5347 123.282 26.4195C121.734 27.3044 120.01 27.8372 118.233 27.98C116.238 28.2168 114.216 27.9229 112.37 27.128C110.239 26.1527 108.397 24.6426 107.023 22.7446C106.812 22.4654 106.66 22.382 106.33 22.5017C101.203 24.2782 96.0755 26.0451 90.9465 27.8023C90.3161 28.0497 89.6706 28.2568 89.014 28.4223C88.5364 28.5138 88.0436 28.4854 87.5797 28.3397C87.1158 28.1939 86.6953 27.9355 86.3558 27.5873C86.0163 27.2392 85.7685 26.8124 85.6344 26.345C85.5004 25.8776 85.4844 25.3842 85.5878 24.9091C85.9503 23.1543 86.7516 21.5554 87.4006 19.9057C88.9524 15.9356 90.544 11.9837 92.1139 8.02088C92.1719 7.87585 92.2009 7.71633 92.2444 7.56767L94.9057 0.541199ZM121.144 11.2586C119.603 9.64154 116.707 9.23547 114.488 10.2833C112.863 11.0519 111.848 12.3281 111.286 14.1228L121.144 11.2586Z" fill="white"/>
<path d="M94.9058 0.541016L92.2482 7.56749L83.0282 10.4245L81.0522 11.0372C81.4011 12.0792 81.6975 13.138 81.9405 14.2096C82.3923 16.539 82.1398 18.9502 81.2152 21.1354C80.2906 23.3206 78.7358 25.1808 76.7494 26.4784C74.7629 27.7761 72.4348 28.4525 70.0622 28.4212C67.6896 28.3899 65.3802 27.6523 63.4287 26.3027C61.4771 24.953 59.972 23.0525 59.1054 20.8437C58.2387 18.6348 58.0499 16.2178 58.563 13.9012C59.0761 11.5846 60.2679 9.47336 61.9861 7.83704C63.7044 6.20071 65.8713 5.11348 68.2102 4.71412C70.9512 4.3008 73.6487 4.60172 76.1069 6.0556C76.3069 6.15217 76.5359 6.17028 76.7486 6.10636C82.7502 4.26937 88.747 2.42634 94.739 0.577272L94.9058 0.541016ZM70.4146 11.4578C69.4524 11.4536 68.5105 11.7343 67.7077 12.2646C66.9048 12.7949 66.2769 13.551 65.9031 14.4376C65.5293 15.3243 65.4264 16.3017 65.6073 17.2467C65.7882 18.1918 66.2448 19.0621 66.9196 19.748C67.5944 20.4339 68.4572 20.9047 69.3991 21.101C70.3411 21.2973 71.3201 21.2103 72.2127 20.851C73.1053 20.4917 73.8716 19.8762 74.4149 19.0821C74.9582 18.288 75.2543 17.3508 75.2657 16.3887C75.2734 15.7457 75.1537 15.1076 74.9136 14.5111C74.6735 13.9146 74.3178 13.3715 73.8668 12.9132C73.4159 12.4548 72.8787 12.0902 72.2862 11.8405C71.6937 11.5907 71.0576 11.4606 70.4146 11.4578Z" fill="white"/>
<path d="M138.181 20.1702C140.451 22.3927 144.454 22.2041 146.564 19.8076C147.539 18.7199 147.688 18.6728 148.978 19.387C149.928 19.914 150.876 20.4421 151.821 20.9714C151.991 21.0477 152.14 21.1626 152.258 21.3068C152.375 21.4511 152.457 21.6208 152.498 21.8024C152.538 21.984 152.536 22.1726 152.491 22.3531C152.446 22.5336 152.359 22.7011 152.238 22.8423C151.215 24.3003 149.884 25.515 148.339 26.3999C146.793 27.2847 145.072 27.818 143.297 27.9617C141.154 28.1719 139.04 27.9617 137.133 26.9719C133.93 25.3716 131.473 22.5916 130.277 19.2166C128.16 13.5788 131.978 5.54436 138.979 3.74242C145.98 1.94049 153.09 6.42902 154.308 13.5316C154.344 13.7455 154.377 13.9595 154.413 14.1734C154.555 14.9783 154.228 15.475 153.405 15.7143L145.034 18.1616L138.181 20.1702ZM146.19 11.2584C144.664 9.65583 141.792 9.23888 139.588 10.2649C137.942 11.0299 136.912 12.3134 136.325 14.1226L146.19 11.2584Z" fill="white"/>
<path d="M163.246 20.1776C165.197 22.1427 168.717 22.2623 170.94 20.4386C171.298 20.1241 171.633 19.7849 171.944 19.4235C172.455 18.8687 172.908 18.7781 173.568 19.1407C174.67 19.7498 175.77 20.3625 176.867 20.9789C177.037 21.0544 177.186 21.1682 177.304 21.3114C177.422 21.4546 177.505 21.6232 177.546 21.8039C177.588 21.9846 177.587 22.1725 177.543 22.3527C177.5 22.533 177.415 22.7006 177.295 22.8424C176.274 24.3009 174.943 25.5161 173.399 26.4016C171.854 27.2871 170.133 27.8211 168.358 27.9654C166.15 28.1794 164.007 27.9654 162.02 26.9031C158.896 25.2817 156.504 22.5344 155.328 19.2168C153.196 13.5391 157.068 5.4974 164.12 3.70997C165.771 3.29274 167.491 3.22005 169.172 3.49644C170.854 3.77283 172.46 4.39237 173.891 5.31648C175.322 6.24058 176.548 7.44947 177.492 8.86784C178.435 10.2862 179.077 11.8837 179.376 13.5608C179.409 13.7457 179.442 13.9234 179.471 14.1155C179.608 14.9784 179.304 15.4643 178.474 15.7072L170.106 18.1545L163.652 20.0471L163.246 20.1776ZM171.222 11.2622C169.874 9.87717 167.336 9.22818 164.993 10.0983C162.923 10.867 161.567 12.9118 161.473 14.0865L171.222 11.2622Z" fill="white"/>
<path d="M45.0315 4.60551C50.3685 4.18857 56.9417 8.93089 56.949 16.3671C56.949 22.8932 51.5758 28.2084 44.9844 28.2338C43.3802 28.2304 41.7931 27.9044 40.3174 27.2753C38.8418 26.6461 37.5077 25.7267 36.3945 24.5716C35.2814 23.4165 34.4119 22.0493 33.8377 20.5514C33.2636 19.0535 32.9965 17.4554 33.0524 15.8522C33.3099 9.25358 39.2378 4.18857 45.0315 4.60551ZM45.0315 21.2C45.9937 21.2043 46.9356 20.9235 47.7385 20.3932C48.5414 19.8629 49.1693 19.1068 49.5431 18.2202C49.9169 17.3336 50.0198 16.3561 49.8389 15.4111C49.658 14.466 49.2013 13.5957 48.5265 12.9098C47.8517 12.2239 46.989 11.7531 46.047 11.5569C45.105 11.3606 44.126 11.4475 43.2334 11.8068C42.3408 12.1661 41.5746 12.7816 41.0313 13.5757C40.4879 14.3698 40.1919 15.307 40.1804 16.2692C40.1728 16.9136 40.293 17.5532 40.5342 18.1509C40.7754 18.7486 41.1328 19.2925 41.5857 19.7511C42.0386 20.2097 42.5779 20.5739 43.1725 20.8226C43.7671 21.0713 44.4051 21.1996 45.0496 21.2H45.0315Z" fill="white"/>
<path d="M22.0776 15.4033L24.5467 9.57331C24.7207 9.15998 24.9092 8.74666 25.0688 8.33696C25.2299 7.86595 25.4863 7.43317 25.8219 7.06557C26.1576 6.69797 26.5654 6.40344 27.0199 6.20032C27.4744 5.9972 27.9658 5.88984 28.4636 5.88494C28.9614 5.88004 29.4548 5.9777 29.9132 6.17184C30.3716 6.36597 30.7851 6.65242 31.1279 7.01334C31.4708 7.37426 31.7356 7.80192 31.906 8.26966C32.0763 8.73741 32.1485 9.23523 32.1181 9.7321C32.0877 10.229 31.9552 10.7143 31.7291 11.1577C30.4021 14.3265 29.0533 17.4844 27.7155 20.6677C26.9614 22.4467 26.2108 24.2293 25.464 26.0155C25.2044 26.7058 24.7405 27.3005 24.1341 27.7203C23.5278 28.1401 22.8078 28.365 22.0704 28.365C21.3329 28.365 20.613 28.1401 20.0066 27.7203C19.4003 27.3005 18.9364 26.7058 18.6768 26.0155L15.8669 19.3299C15.8198 19.2175 15.7654 19.1051 15.6784 18.9202C15.5732 19.1522 15.4935 19.3154 15.4246 19.4822C14.5037 21.6865 13.5755 23.9018 12.622 26.1062C12.4611 26.5796 12.2041 27.0146 11.867 27.3839C11.5299 27.7532 11.1201 28.0488 10.6633 28.2521C10.2066 28.4554 9.71265 28.562 9.21267 28.5653C8.71269 28.5685 8.21745 28.4683 7.75805 28.271C7.29866 28.0736 6.88504 27.7834 6.54321 27.4185C6.20137 27.0536 5.9387 26.622 5.7717 26.1507C5.6047 25.6794 5.53698 25.1787 5.57279 24.68C5.60861 24.1813 5.74718 23.6954 5.97982 23.2528C7.18836 20.3523 8.40778 17.4663 9.63808 14.5948C10.5155 12.5028 11.3893 10.4072 12.2884 8.34059C12.525 7.7661 12.904 7.26132 13.3897 6.87387C13.8754 6.48641 14.4518 6.22904 15.0645 6.12601C15.6772 6.02299 16.306 6.07771 16.8917 6.28502C17.4774 6.49232 18.0006 6.84538 18.4121 7.31091C18.7179 7.67524 18.9628 8.08662 19.1372 8.52912C20.0835 10.7045 21.0008 12.9125 21.929 15.1024C21.9689 15.1713 22.0087 15.251 22.0776 15.4033Z" fill="white"/>
<path d="M4.15996 18.3974C3.35144 16.9979 2.58644 15.6564 1.81418 14.3222C1.45161 13.6841 1.04917 13.0532 0.672102 12.426C-0.212552 10.9358 -0.245183 9.42758 0.701107 7.97732C1.10181 7.30319 1.69741 6.76632 2.40939 6.43752C3.12136 6.10872 3.91627 6.00342 4.6893 6.1355C5.50478 6.21537 6.27509 6.54742 6.89307 7.08547C7.51104 7.62351 7.94595 8.3408 8.13728 9.13752C8.29484 9.66668 8.33882 10.2232 8.26634 10.7705C8.19386 11.3178 8.00656 11.8437 7.71671 12.3136C6.6121 14.2255 5.50144 16.1362 4.38475 18.0457C4.32674 18.1291 4.2651 18.227 4.15996 18.3974Z" fill="white"/>
</svg>
