<svg width="23" height="24" viewBox="0 0 23 24" fill="none" xmlns="http://www.w3.org/2000/svg">
<path d="M21.0172 2.57063L21.0755 2.7573L21.7195 4.99963C21.7778 5.2029 21.7606 5.42041 21.6709 5.61194C21.5813 5.80347 21.4253 5.95606 21.2318 6.04146L21.1198 6.0823L8.605 9.6698H21.6238C21.8356 9.66988 22.0402 9.74678 22.1996 9.88624C22.359 10.0257 22.4624 10.2182 22.4907 10.4281L22.4988 10.5448V20.4603C22.4989 21.2775 22.187 22.0639 21.627 22.659C21.067 23.2542 20.301 23.6132 19.4853 23.6628L19.2917 23.6675H4.70833C3.89133 23.6675 3.10509 23.3559 2.50999 22.7961C1.91488 22.2363 1.55575 21.4706 1.50583 20.6551L1.5 20.4591V10.6685L0.891001 8.54396C0.665926 7.75858 0.748951 6.91692 1.12314 6.19065C1.49733 5.46439 2.13449 4.90823 2.90467 4.63563L3.09133 4.57496L17.1077 0.555796C17.893 0.330721 18.7347 0.413746 19.461 0.787936C20.1872 1.16213 20.7434 1.79929 21.016 2.56946L21.0172 2.57063ZM20.7488 11.4198H3.25V20.4603C3.25 21.165 3.7505 21.753 4.41433 21.8883L4.559 21.9116L4.70833 21.9186H19.2917C19.6527 21.9188 20.001 21.785 20.2691 21.5432C20.5372 21.3014 20.706 20.9688 20.743 20.6096L20.75 20.4603V11.4198H20.7488ZM5.31733 5.75796L3.572 6.25963C3.22536 6.35909 2.92787 6.58347 2.73697 6.88942C2.54607 7.19538 2.4753 7.56122 2.53833 7.9163L2.57217 8.06213L2.9735 9.46329L3.31767 9.36413L5.31733 5.75913V5.75796ZM10.866 4.1678L7.69617 5.07663L5.6965 8.68163L8.8675 7.77396L10.866 4.1678ZM16.4158 2.5753L13.246 3.4853L11.2463 7.0903L14.4162 6.18263L16.4158 2.5753ZM18.5718 2.30346L16.7973 5.50013L19.7933 4.6403L19.3932 3.2403C19.3341 3.0331 19.2298 2.84159 19.0878 2.67959C18.9457 2.51759 18.7695 2.38912 18.5718 2.30346Z" fill="white" fill-opacity="0.6"/>
</svg>
