<svg width="231" height="37" viewBox="0 0 231 37" fill="none" xmlns="http://www.w3.org/2000/svg">
<path d="M122.249 0.724363C123.477 0.266571 124.743 -0.10424 126.056 0.0971882C128.769 0.513779 130.333 3.39787 129.314 6.09426C128.583 8.04446 127.764 9.96261 126.987 11.8945L121.602 25.2208C121.541 25.3719 121.504 25.5321 121.453 25.6786L121.397 25.7564H121.527C124.028 24.9232 126.524 24.0901 129.016 23.2569C130.738 22.6801 132.451 22.0804 134.182 21.5264C134.648 21.3754 134.82 21.1831 134.773 20.6841C134.308 15.511 137.887 8.8227 143.151 6.14004C153.577 0.820499 164.663 7.3303 166.381 17.1271L166.507 17.8824C166.683 18.9216 166.283 19.5579 165.25 19.8509L156.374 22.4054L146.167 25.349L145.651 25.5092C146.805 26.6294 148.325 27.3107 149.942 27.4319C151.224 27.5776 152.524 27.3993 153.717 26.9139C154.91 26.4285 155.957 25.652 156.76 24.6577C157.482 23.8017 158.054 23.7421 159.046 24.264C160.409 25.0102 161.778 25.7519 163.137 26.5026C163.362 26.5969 163.561 26.7423 163.718 26.927C163.874 27.1117 163.984 27.3304 164.039 27.565C164.093 27.7997 164.089 28.0436 164.029 28.2767C163.968 28.5099 163.852 28.7255 163.691 28.906C162.375 30.7482 160.663 32.2825 158.676 33.3997C156.689 34.517 154.476 35.1897 152.195 35.3701C149.633 35.669 147.037 35.2979 144.668 34.2942C141.933 33.0628 139.568 31.1561 137.803 28.7595C137.533 28.407 137.338 28.3018 136.914 28.4528C130.333 30.696 123.75 32.927 117.166 35.1457C116.357 35.4581 115.528 35.7196 114.685 35.9286C114.072 36.0441 113.44 36.0082 112.844 35.8242C112.249 35.6402 111.709 35.3138 111.273 34.8743C110.837 34.4347 110.519 33.8958 110.347 33.3056C110.175 32.7154 110.154 32.0925 110.287 31.4926C110.752 29.2768 111.781 27.258 112.614 25.175C114.606 20.1622 116.649 15.1723 118.665 10.1686C118.739 9.9855 118.777 9.78407 118.832 9.59637L122.249 0.724363ZM155.932 14.2567C153.954 12.2149 150.235 11.7022 147.387 13.0252C145.301 13.9958 143.998 15.6072 143.277 17.8733L155.932 14.2567Z" fill="#FF5757"/>
<path d="M122.249 0.722656L118.838 9.59466L107.002 13.2021L104.465 13.9757C104.913 15.2914 105.293 16.6283 105.605 17.9814C106.185 20.9226 105.861 23.967 104.674 26.7262C103.487 29.4854 101.491 31.8341 98.9413 33.4726C96.3912 35.1112 93.4026 35.9652 90.3569 35.9256C87.3111 35.8861 84.3465 34.9548 81.8412 33.2507C79.336 31.5466 77.4038 29.1469 76.2913 26.3579C75.1788 23.5689 74.9364 20.517 75.5951 17.5919C76.2538 14.6668 77.7836 12.0011 79.9894 9.935C82.1952 7.86889 84.9769 6.4961 87.9794 5.99184C91.4981 5.46996 94.9609 5.84992 98.1165 7.68567C98.3733 7.80759 98.6672 7.83046 98.9403 7.74976C106.645 5.43028 114.343 3.10317 122.035 0.768435L122.249 0.722656ZM90.8093 14.5068C89.5741 14.5014 88.3649 14.8559 87.3343 15.5255C86.3036 16.195 85.4975 17.1498 85.0177 18.2693C84.5378 19.3888 84.4057 20.6229 84.6379 21.8162C84.8702 23.0095 85.4564 24.1084 86.3226 24.9744C87.1889 25.8405 88.2964 26.4349 89.5057 26.6828C90.7149 26.9306 91.9716 26.8208 93.1175 26.3671C94.2634 25.9135 95.247 25.1363 95.9445 24.1336C96.642 23.1309 97.022 21.9476 97.0367 20.7327C97.0466 19.9209 96.8929 19.1152 96.5847 18.362C96.2765 17.6089 95.8198 16.9232 95.2409 16.3444C94.662 15.7657 93.9724 15.3053 93.2118 14.9899C92.4512 14.6745 91.6347 14.5103 90.8093 14.5068Z" fill="#053F7C"/>
<path d="M177.802 25.5115C180.715 28.3178 185.854 28.0798 188.563 25.0538C189.815 23.6804 190.005 23.6209 191.662 24.5227C192.882 25.188 194.098 25.8549 195.311 26.5233C195.529 26.6196 195.721 26.7646 195.872 26.9468C196.023 27.1289 196.129 27.3431 196.181 27.5725C196.233 27.8018 196.229 28.0399 196.171 28.2678C196.114 28.4958 196.002 28.7072 195.847 28.8855C194.534 30.7265 192.825 32.2602 190.841 33.3775C188.858 34.4948 186.648 35.1681 184.369 35.3495C181.618 35.615 178.905 35.3495 176.457 34.0997C172.345 32.0791 169.19 28.569 167.655 24.3076C164.937 17.1889 169.838 7.04424 178.826 4.76901C187.813 2.49379 196.94 8.16125 198.504 17.1294C198.551 17.3995 198.593 17.6696 198.639 17.9397C198.821 18.956 198.402 19.5831 197.345 19.8853L186.598 22.9754L177.802 25.5115ZM188.083 14.259C186.124 12.2356 182.438 11.7091 179.608 13.0047C177.495 13.9706 176.173 15.5912 175.419 17.8756L188.083 14.259Z" fill="#FF5757"/>
<path d="M209.978 25.5201C212.482 28.0014 217.001 28.1524 219.854 25.8497C220.314 25.4526 220.745 25.0243 221.144 24.5679C221.8 23.8675 222.382 23.7531 223.229 24.2108C224.644 24.9799 226.056 25.7536 227.464 26.5319C227.682 26.6272 227.874 26.7709 228.025 26.9517C228.176 27.1325 228.282 27.3454 228.336 27.5736C228.389 27.8018 228.388 28.039 228.332 28.2666C228.276 28.4942 228.167 28.7058 228.013 28.8849C226.702 30.7264 224.994 32.2609 223.011 33.379C221.028 34.497 218.819 35.1712 216.541 35.3535C213.706 35.6236 210.955 35.3535 208.405 34.0122C204.394 31.9648 201.323 28.496 199.813 24.307C197.076 17.138 202.047 6.98412 211.1 4.7272C213.22 4.20039 215.428 4.10861 217.586 4.45759C219.744 4.80657 221.806 5.58884 223.643 6.75567C225.481 7.9225 227.054 9.4489 228.265 11.2398C229.477 13.0307 230.301 15.0478 230.685 17.1654C230.727 17.3989 230.769 17.6232 230.806 17.8658C230.983 18.9554 230.592 19.5688 229.526 19.8756L218.784 22.9656L210.499 25.3553L209.978 25.5201ZM220.217 14.263C218.486 12.5142 215.228 11.6948 212.221 12.7935C209.564 13.764 207.823 16.346 207.702 17.8292L220.217 14.263Z" fill="#FF5757"/>
<path d="M58.2236 5.85634C65.0748 5.32988 73.513 11.3178 73.5223 20.7071C73.5223 28.9474 66.6246 35.6586 58.1631 35.6906C56.1038 35.6863 54.0664 35.2748 52.172 34.4804C50.2777 33.686 48.5651 32.5251 47.1361 31.0666C45.7071 29.6081 44.5909 27.8818 43.8539 25.9905C43.1168 24.0991 42.774 22.0813 42.8458 20.057C43.1762 11.7252 50.786 5.32988 58.2236 5.85634ZM58.2236 26.8095C59.4588 26.8148 60.6679 26.4604 61.6986 25.7908C62.7293 25.1212 63.5353 24.1665 64.0152 23.047C64.495 21.9275 64.6272 20.6933 64.3949 19.5C64.1627 18.3068 63.5765 17.2079 62.7102 16.3418C61.844 15.4757 60.7364 14.8813 59.5272 14.6335C58.318 14.3856 57.0612 14.4955 55.9154 14.9491C54.7695 15.4027 53.7858 16.1799 53.0884 17.1826C52.3909 18.1853 52.0109 19.3687 51.9961 20.5835C51.9863 21.3973 52.1407 22.2048 52.4503 22.9595C52.76 23.7141 53.2188 24.4009 53.8001 24.9799C54.3815 25.559 55.0739 26.0189 55.8371 26.3329C56.6004 26.6469 57.4195 26.8089 58.2469 26.8095H58.2236Z" fill="#053F7C"/>
<path d="M28.7572 19.4893L31.9268 12.128C32.1502 11.6062 32.3923 11.0843 32.5971 10.567C32.8039 9.97226 33.133 9.4258 33.5639 8.96165C33.9948 8.4975 34.5183 8.1256 35.1018 7.86913C35.6852 7.61266 36.316 7.47711 36.9551 7.47092C37.5941 7.46474 38.2275 7.58805 38.816 7.83317C39.4044 8.0783 39.9352 8.43999 40.3754 8.8957C40.8155 9.35142 41.1555 9.8914 41.3742 10.482C41.5929 11.0726 41.6856 11.7012 41.6465 12.3285C41.6074 12.9559 41.4374 13.5687 41.147 14.1286C39.4436 18.1297 37.7122 22.1171 35.9947 26.1365C35.0266 28.3827 34.0632 30.6335 33.1044 32.8889C32.7711 33.7605 32.1756 34.5113 31.3972 35.0414C30.6189 35.5714 29.6947 35.8554 28.7479 35.8554C27.8012 35.8554 26.877 35.5714 26.0987 35.0414C25.3203 34.5113 24.7247 33.7605 24.3915 32.8889L20.7844 24.4472C20.7239 24.3053 20.6541 24.1634 20.5424 23.9299C20.4074 24.2229 20.305 24.4289 20.2166 24.6395C19.0344 27.4229 17.8429 30.22 16.6188 33.0033C16.4123 33.6011 16.0823 34.1504 15.6496 34.6166C15.2169 35.0829 14.6908 35.4562 14.1045 35.7129C13.5181 35.9696 12.884 36.1042 12.2422 36.1083C11.6003 36.1124 10.9646 35.9859 10.3748 35.7367C9.78511 35.4875 9.25415 35.1211 8.81532 34.6603C8.3765 34.1996 8.0393 33.6546 7.82492 33.0595C7.61053 32.4645 7.5236 31.8322 7.56957 31.2026C7.61555 30.5729 7.79345 29.9593 8.09208 29.4005C9.64352 25.7382 11.2089 22.0942 12.7883 18.4685C13.9146 15.827 15.0363 13.181 16.1906 10.5716C16.4943 9.84617 16.9808 9.20882 17.6043 8.71959C18.2278 8.23037 18.9677 7.9054 19.7543 7.77531C20.5408 7.64523 21.3481 7.71432 22.0999 7.97608C22.8518 8.23784 23.5235 8.68363 24.0517 9.27143C24.4443 9.73145 24.7586 10.2509 24.9826 10.8096C26.1974 13.5564 27.3749 16.3443 28.5664 19.1094C28.6176 19.1963 28.6688 19.2971 28.7572 19.4893Z" fill="#053F7C"/>
<path d="M5.75575 23.2713C4.71784 21.5042 3.73578 19.8104 2.74442 18.1257C2.27899 17.32 1.76236 16.5234 1.27832 15.7314C0.14267 13.8499 0.100782 11.9455 1.31555 10.1143C1.82994 9.26312 2.59453 8.58524 3.50851 8.17008C4.42248 7.75491 5.44292 7.62195 6.43527 7.78873C7.48212 7.88957 8.47098 8.30884 9.26429 8.98821C10.0576 9.66758 10.6159 10.5733 10.8615 11.5793C11.0638 12.2474 11.1202 12.95 11.0272 13.6411C10.9341 14.3322 10.6937 14.9962 10.3216 15.5895C8.9036 18.0036 7.47784 20.4162 6.04431 22.8272C5.96985 22.9325 5.89072 23.0561 5.75575 23.2713Z" fill="#FE5858"/>
</svg>
