<svg width="22" height="22" viewBox="0 0 22 22" fill="none" xmlns="http://www.w3.org/2000/svg">
<path d="M21 4H1C0.734784 4 0.48043 4.10536 0.292893 4.29289C0.105357 4.48043 0 4.73478 0 5V9C0.00173951 9.61894 0.194878 10.2222 0.552938 10.7271C0.910998 11.2319 1.41645 11.6137 2 11.82V21C2 21.2652 2.10536 21.5196 2.29289 21.7071C2.48043 21.8946 2.73478 22 3 22H19C19.2652 22 19.5196 21.8946 19.7071 21.7071C19.8946 21.5196 20 21.2652 20 21V11.82C20.5835 11.6137 21.089 11.2319 21.4471 10.7271C21.8051 10.2222 21.9983 9.61894 22 9V5C22 4.73478 21.8946 4.48043 21.7071 4.29289C21.5196 4.10536 21.2652 4 21 4ZM14 6H16V9C16 9.26522 15.8946 9.51957 15.7071 9.70711C15.5196 9.89464 15.2652 10 15 10C14.7348 10 14.4804 9.89464 14.2929 9.70711C14.1054 9.51957 14 9.26522 14 9V6ZM10 6H12V9C12 9.26522 11.8946 9.51957 11.7071 9.70711C11.5196 9.89464 11.2652 10 11 10C10.7348 10 10.4804 9.89464 10.2929 9.70711C10.1054 9.51957 10 9.26522 10 9V6ZM6 6H8V9C8 9.26522 7.89464 9.51957 7.70711 9.70711C7.51957 9.89464 7.26522 10 7 10C6.73478 10 6.48043 9.89464 6.29289 9.70711C6.10536 9.51957 6 9.26522 6 9V6ZM3 10C2.73478 10 2.48043 9.89464 2.29289 9.70711C2.10536 9.51957 2 9.26522 2 9V6H4V9C4 9.26522 3.89464 9.51957 3.70711 9.70711C3.51957 9.89464 3.26522 10 3 10ZM13 20H9V18C9 17.4696 9.21071 16.9609 9.58579 16.5858C9.96086 16.2107 10.4696 16 11 16C11.5304 16 12.0391 16.2107 12.4142 16.5858C12.7893 16.9609 13 17.4696 13 18V20ZM18 20H15V18C15 16.9391 14.5786 15.9217 13.8284 15.1716C13.0783 14.4214 12.0609 14 11 14C9.93913 14 8.92172 14.4214 8.17157 15.1716C7.42143 15.9217 7 16.9391 7 18V20H4V11.82C4.36757 11.6836 4.70664 11.4801 5 11.22C5.55002 11.712 6.26207 11.9839 7 11.9839C7.73793 11.9839 8.44998 11.712 9 11.22C9.55002 11.712 10.2621 11.9839 11 11.9839C11.7379 11.9839 12.45 11.712 13 11.22C13.55 11.712 14.2621 11.9839 15 11.9839C15.7379 11.9839 16.45 11.712 17 11.22C17.2934 11.4801 17.6324 11.6836 18 11.82V20ZM20 9C20 9.26522 19.8946 9.51957 19.7071 9.70711C19.5196 9.89464 19.2652 10 19 10C18.7348 10 18.4804 9.89464 18.2929 9.70711C18.1054 9.51957 18 9.26522 18 9V6H20V9ZM3.3 2H19C19.2652 2 19.5196 1.89464 19.7071 1.70711C19.8946 1.51957 20 1.26522 20 1C20 0.734784 19.8946 0.48043 19.7071 0.292893C19.5196 0.105357 19.2652 0 19 0H3.3C3.03478 0 2.78043 0.105357 2.59289 0.292893C2.40536 0.48043 2.3 0.734784 2.3 1C2.3 1.26522 2.40536 1.51957 2.59289 1.70711C2.78043 1.89464 3.03478 2 3.3 2V2Z" fill="#999999"/>
</svg>
